<?xml version="1.0" encoding="UTF-8"?>
<svg id="Capa_2" data-name="Capa 2" xmlns="http://www.w3.org/2000/svg" viewBox="0 0 394.17 262.79">
  <defs>
    <style>
      .cls-1 {
        fill: #b8abd4;
      }

      .cls-2 {
        fill: #f9f2aa;
      }
    </style>
  </defs>
  <g id="Capa_2-2" data-name="Capa 2">
    <g id="Capa_1-2" data-name="Capa 1-2">
      <g>
        <path class="cls-1" d="M131.39,131.39c0-48.62,26.43-91.05,65.69-113.76C177.76,6.44,155.33,0,131.39,0,58.83,0,0,58.83,0,131.39s58.83,131.39,131.39,131.39c23.94,0,46.36-6.44,65.69-17.62-39.26-22.72-65.69-65.14-65.69-113.76h0Z"/>
        <path class="cls-2" d="M262.78,0c-23.94,0-46.36,6.44-65.69,17.62,39.26,22.72,65.69,65.14,65.69,113.76s-26.43,91.05-65.69,113.76c19.33,11.18,41.75,17.62,65.69,17.62,72.56,0,131.39-58.83,131.39-131.39S335.34,0,262.78,0Z"/>
      </g>
    </g>
  </g>
</svg>