<?xml version="1.0" encoding="UTF-8"?>
<svg id="Capa_2" data-name="Capa 2" xmlns="http://www.w3.org/2000/svg" viewBox="0 0 407.84 271.89">
  <defs>
    <style>
      .cls-1 {
        fill: #f9f2aa;
      }
    </style>
  </defs>
  <g id="Capa_1-2" data-name="Capa 1">
    <g>
      <path class="cls-1" d="M135.95,135.95c0-50.31,27.35-94.21,67.97-117.71C183.92,6.66,160.72,0,135.95,0,60.87,0,0,60.87,0,135.95s60.87,135.95,135.95,135.95c24.77,0,47.97-6.66,67.97-18.23-40.62-23.51-67.97-67.4-67.97-117.71Z"/>
      <path class="cls-1" d="M271.89,0c-24.77,0-47.97,6.66-67.97,18.23,40.62,23.51,67.97,67.4,67.97,117.71s-27.35,94.21-67.97,117.71c20,11.57,43.2,18.23,67.97,18.23,75.08,0,135.95-60.87,135.95-135.95S346.97,0,271.89,0Z"/>
    </g>
  </g>
</svg>